<?xml version="1.0" encoding="UTF-8" standalone="no"?>
<!--Created with Inkscape (http://www.inkscape.org/)-->

<svg
   xmlns:dc="http://purl.org/dc/elements/1.1/"
   xmlns:cc="http://creativecommons.org/ns#"
   xmlns:rdf="http://www.w3.org/1999/02/22-rdf-syntax-ns#"
   xmlns:svg="http://www.w3.org/2000/svg"
   xmlns="http://www.w3.org/2000/svg"
   xmlns:sodipodi="http://sodipodi.sourceforge.net/DTD/sodipodi-0.dtd"
   xmlns:inkscape="http://www.inkscape.org/namespaces/inkscape"
   id="svg8"
   width="34.48772mm"
   height="50.413242mm"
   class="element"
   version="1.1"
   viewBox="0 0 34.48772 50.413242"
   inkscape:version="0.92.2 (5c3e80d, 2017-08-06)"
   sodipodi:docname="clefc.svg">
  <defs
     id="defs2" />
  <sodipodi:namedview
     id="base"
     bordercolor="#666666"
     borderopacity="1.0"
     fit-margin-bottom="0"
     fit-margin-left="0"
     fit-margin-right="0"
     fit-margin-top="0"
     pagecolor="#ffffff"
     showgrid="false"
     inkscape:current-layer="layer1"
     inkscape:cx="174.88993"
     inkscape:cy="90.369219"
     inkscape:document-units="mm"
     inkscape:pageopacity="0.0"
     inkscape:pageshadow="2"
     inkscape:window-height="847"
     inkscape:window-maximized="1"
     inkscape:window-width="1600"
     inkscape:window-x="-8"
     inkscape:window-y="-8"
     inkscape:zoom="2.56" />
  <metadata
     id="metadata5">
    <rdf:RDF>
      <cc:Work
         rdf:about="">
        <dc:format>
                    image/svg+xml
                </dc:format>
        <dc:type
           rdf:resource="http://purl.org/dc/dcmitype/StillImage" />
        <dc:title></dc:title>
      </cc:Work>
    </rdf:RDF>
  </metadata>
  <g
     id="layer1"
     transform="translate(-24.315601,-106.87207)"
     inkscape:groupmode="layer"
     inkscape:label="Layer 1">
    <g
       aria-label="?"
       style="font-style:normal;font-variant:normal;font-weight:normal;font-stretch:normal;font-size:92.05883789px;line-height:1.25;font-family:MusiSync;-inkscape-font-specification:MusiSync;letter-spacing:0px;word-spacing:0px;fill:#000000;fill-opacity:1;stroke:none;stroke-width:0.47947311"
       id="text15"
       transform="matrix(0.78209576,0,0,0.78209576,9.1418608,-39.985129)">
      <path
         d="m 28.796061,242.20912 q 1.213666,-0.94396 1.753073,-1.48337 0.269704,-0.2697 0.629309,-0.67426 0.359605,-0.4495 0.854061,-0.98891 l 3.191493,-3.86575 q 1.573271,-2.11268 3.281394,-4.36021 1.708123,-2.24753 3.011691,-4.76476 0.899012,-1.84298 1.52832,-3.2814 0.674259,-1.48337 1.573271,-4.2703 l 0.943963,-4.94457 q 0.179803,-1.30357 0.314654,-2.42733 0.134852,-1.16872 0.134852,-2.20258 l -0.269703,-4.22536 q -0.0899,-1.16872 -0.224753,-2.15763 -0.134852,-1.03386 -0.539408,-1.79802 -0.449506,-1.93288 -1.573271,-4.31526 -1.078814,-2.38238 -2.202579,-3.77585 -2.292481,-2.56219 -5.708727,-2.56219 -3.281394,0 -6.248134,1.52832 -2.831888,1.75308 -4.225357,5.70873 l -0.269704,0.94396 q 0,0.80911 0.539408,1.16872 l 1.303567,0.58436 1.168716,-0.26971 1.842975,-0.40455 q 2.202579,0 3.865752,1.93287 1.663172,1.84298 1.663172,4.54001 0,1.66318 -0.809111,3.41625 -0.943963,1.84298 -2.20258,2.83189 -1.842974,1.03386 -3.416246,1.03386 -3.236443,0 -5.439023,-2.51723 -2.29248,-2.56219 -2.29248,-6.42794 0,-3.86575 1.438419,-6.87744 1.48337,-3.05664 3.820801,-5.16932 2.382382,-2.11268 5.349122,-3.23644 3.011691,-1.12377 5.93348,-1.12377 4.180406,0 8.046158,2.78694 3.865752,2.83189 6.113282,7.6416 2.247531,4.76477 2.247531,10.02399 0,9.93408 -5.079419,18.02519 -0.719209,1.12376 -1.393468,2.11268 -0.629309,0.94396 -1.258617,1.75307 -0.629309,1.03387 -1.43842,2.02278 -0.76416,0.94396 -1.618222,1.97782 -1.438419,1.61823 -3.191492,3.32635 -1.753074,1.70812 -3.775851,3.4612 -1.123765,0.85406 -2.697036,2.06772 -1.528321,1.16872 -3.955654,2.74199 l -9.754281,6.51784 -0.359605,-1.75308 z m 27.689572,-44.00664 q 0,-1.75307 1.078815,-3.01169 1.123765,-1.30357 2.517233,-1.30357 1.123765,0 2.382382,1.25862 1.033864,1.30357 1.033864,3.14654 0,1.84298 -1.033864,3.14655 -1.258617,1.25861 -2.472283,1.25861 -1.393469,0 -2.472283,-1.39347 -1.033864,-1.52832 -1.033864,-3.10159 z m 0,17.75549 q 0,-1.57327 1.033864,-3.14654 1.078814,-1.34852 2.562184,-1.34852 1.123765,0 2.292481,1.48337 0.494457,0.62931 0.809111,1.34852 0.314654,0.67426 0.314654,1.66317 0,2.02278 -0.943962,3.23644 -0.899012,1.16872 -2.472284,1.16872 -1.48337,0 -2.562184,-1.16872 -1.033864,-1.30356 -1.033864,-3.23644 z"
         style="stroke-width:0.47947311"
         id="path17"
         inkscape:connector-curvature="0" />
    </g>
  </g>
</svg>
