<?xml version="1.0" encoding="UTF-8" standalone="no"?>
<!--Created with Inkscape (http://www.inkscape.org/)-->
<svg xmlns="http://www.w3.org/2000/svg" xmlns:cc="http://creativecommons.org/ns#" xmlns:dc="http://purl.org/dc/elements/1.1/" xmlns:inkscape="http://www.inkscape.org/namespaces/inkscape" xmlns:rdf="http://www.w3.org/1999/02/22-rdf-syntax-ns#" xmlns:sodipodi="http://sodipodi.sourceforge.net/DTD/sodipodi-0.dtd" xmlns:svg="http://www.w3.org/2000/svg" id="svg8" width="34.707321mm" height="98.671486mm" class="element" version="1.1" viewBox="0 0 34.707321 98.671486" inkscape:version="0.92.2 (5c3e80d, 2017-08-06)" sodipodi:docname="cleffg.svg">
    <defs id="defs2"/>
    <sodipodi:namedview id="base" bordercolor="#666666" borderopacity="1.0" fit-margin-bottom="0" fit-margin-left="0" fit-margin-right="0" fit-margin-top="0" pagecolor="#ffffff" showgrid="false" inkscape:current-layer="layer1" inkscape:cx="305.3639" inkscape:cy="124.40101" inkscape:document-units="mm" inkscape:pageopacity="0.0" inkscape:pageshadow="2" inkscape:window-height="847" inkscape:window-maximized="1" inkscape:window-width="1600" inkscape:window-x="-8" inkscape:window-y="-8" inkscape:zoom="0.60578002"/>
    <metadata id="metadata5">
        <rdf:RDF>
            <cc:Work rdf:about="">
                <dc:format>
                    image/svg+xml
                </dc:format>
                <dc:type rdf:resource="http://purl.org/dc/dcmitype/StillImage"/>
                <dc:title/>
            </cc:Work>
        </rdf:RDF>
    </metadata>
    <g id="layer1" transform="translate(-24.2058,-82.742952)" inkscape:groupmode="layer" inkscape:label="Layer 1">
        <g id="flowRoot10" aria-label="g" style="font-style:normal;font-variant:normal;font-weight:normal;font-stretch:normal;font-size:40px;line-height:1.25;font-family:MusiSync;-inkscape-font-specification:MusiSync;letter-spacing:0px;word-spacing:0px;fill:#000000;fill-opacity:1;stroke:none" transform="matrix(3.5328351,0,0,3.5328351,-299.00035,-1022.0764)">
            <path id="path18" d="m 97.111328,328.15847 q -0.683594,0.23438 -1.113281,0.76172 -0.410156,0.50781 -0.527344,1.09375 -0.117187,0.58594 0.136719,1.17188 0.253906,0.5664 0.9375,0.9375 0.195312,0 0.234375,0.13671 0.03906,0.13672 -0.15625,0.13672 -0.390625,-0.0781 -1.113281,-0.5664 -0.957032,-0.80078 -0.996094,-1.95313 -0.117188,-1.15234 0.546875,-2.20703 0.371094,-0.46875 0.839844,-0.83984 0.07813,-0.0781 0.429687,-0.25391 0.371094,-0.17578 0.371094,-0.21484 -0.15625,-0.56641 -0.273438,-1.17188 -0.117187,-0.625 -0.234375,-1.26953 -0.644531,0.56641 -1.289062,1.21094 -0.644531,0.625 -1.171875,1.36719 -0.507813,0.74218 -0.839844,1.58203 -0.3125,0.83984 -0.3125,1.71875 0,0.83984 0.351563,1.58203 0.371093,0.74219 0.957031,1.28906 0.585937,0.52734 1.328125,0.85938 0.761719,0.3125 1.5625,0.3125 0.03906,0 0.253906,-0.0195 0.234375,-0.0195 0.46875,-0.0586 0.253906,-0.0391 0.449219,-0.0781 0.195312,-0.0391 0.195312,-0.13672 -0.03906,-0.19532 -0.05859,-0.29297 -0.01953,-0.0977 -0.01953,-0.0586 -0.07813,-0.44921 -0.175781,-0.89843 -0.09766,-0.46875 -0.175781,-0.9375 -0.175781,-0.80078 -0.3125,-1.60157 -0.136719,-0.80078 -0.292969,-1.60156 z m 1.523438,5.23438 q 0.957031,-0.35157 1.289062,-1.21094 0.351562,-0.85938 0.156252,-1.75781 -0.175783,-0.89844 -0.839846,-1.60157 -0.644531,-0.70312 -1.699218,-0.70312 z m -2.480469,-12.44141 q 0.800781,-0.46875 1.40625,-1.52344 0.625,-1.07422 0.859375,-1.95312 0.175781,-0.42969 0.214844,-0.95703 0.03906,-0.52735 -0.175782,-0.95703 -0.195312,-0.3711 -0.449218,-0.41016 -0.253907,-0.0391 -0.507813,0.0977 -0.234375,0.11718 -0.46875,0.3125 -0.214844,0.19531 -0.332031,0.35156 -0.625,1.03515 -0.839844,2.48047 -0.195312,1.44531 0.292969,2.55859 z m -0.410156,0.41016 q -0.195313,-0.87891 -0.371094,-1.69922 -0.175781,-0.82031 -0.175781,-1.73828 0,-0.64453 0.09766,-1.42578 0.09766,-0.78125 0.332031,-1.52344 0.234375,-0.74219 0.664063,-1.32813 0.449218,-0.60547 1.132812,-0.89843 0.05859,-0.0195 0.117188,-0.0195 0.09766,0 0.234375,0.11719 0.136718,0.11719 0.292968,0.33203 0.15625,0.21485 0.253907,0.44922 0.09766,0.21485 0.136718,0.25391 0.371094,0.68359 0.527344,1.44531 0.15625,0.74219 0.195313,1.50391 0.07813,1.17187 -0.09766,2.30468 -0.175781,1.13282 -0.742187,2.1875 -0.234375,0.39063 -0.429688,0.72266 -0.195312,0.3125 -0.410156,0.54688 -0.03906,0.0391 -0.175781,0.19531 -0.136719,0.13672 -0.292969,0.29297 -0.15625,0.15625 -0.292969,0.27343 -0.117187,0.11719 -0.117187,0.15625 0.15625,0.72266 0.253906,1.36719 0.117188,0.64453 0.3125,1.32813 0,-0.0391 0.273438,-0.0195 0.292968,0.0195 0.625,0.0586 0.332031,0.0391 0.605468,0.0977 0.292969,0.0586 0.332032,0.0977 0.683593,0.3125 1.171878,0.87891 0.50781,0.5664 0.80078,1.26953 0.3125,0.68359 0.3125,1.48437 0,0.80079 -0.19532,1.40625 -0.5664,1.44532 -1.757807,2.10938 -0.175781,0.0977 -0.410156,0.19531 -0.234375,0.0977 -0.15625,0.29297 0.03906,0.23438 0.07813,0.46875 0.03906,0.21484 0.07813,0.44922 0.15625,0.64453 0.253906,1.28906 0.09766,0.625 0.195312,1.3086 0.03906,0.8789 -0.292968,1.52343 -0.3125,0.64453 -0.898438,1.03516 -0.585937,0.37109 -1.09375,0.44922 -0.488281,0.0586 -0.722656,0.0586 -0.527344,0 -1.074219,-0.13672 -0.683594,-0.29297 -1.191406,-0.82031 -0.488281,-0.54687 -0.488281,-1.34766 0,-0.46875 0.292968,-1.01562 0.292969,-0.54688 0.742188,-0.74219 0.761719,-0.39062 1.308594,0.0391 0.566406,0.41016 0.703125,1.07422 0.136718,0.64453 -0.195313,1.26953 -0.332031,0.625 -1.289062,0.58594 0.273437,0.46875 0.722656,0.58594 0.46875,0.11719 0.957031,0 0.507813,-0.11719 0.957031,-0.39063 0.46875,-0.27343 0.722657,-0.60546 0.3125,-0.50782 0.351562,-1.40625 0.03906,-0.91797 -0.15625,-1.46485 0,-0.44922 -0.214844,-1.01562 -0.195312,-0.58594 -0.3125,-1.03516 -0.03906,-0.15625 -0.3125,-0.0977 -0.253906,0.0586 -0.371093,0.0977 -1.035157,0.19531 -1.914063,-0.11719 -1.191406,-0.3125 -2.128906,-1.15234 -0.917969,-0.83984 -1.464844,-1.97266 -0.546875,-1.13281 -0.546875,-2.36328 0,-1.23047 0.390625,-2.22656 0.664063,-1.48438 1.660156,-2.71484 1.015625,-1.25 2.207032,-2.32422 z" inkscape:connector-curvature="0"/>
        </g>
    </g>
</svg>
